<svg width="33" height="32" viewBox="0 0 33 32" fill="none" xmlns="http://www.w3.org/2000/svg">
<g clip-path="url(#clip0_9_1553)">
<path d="M16.4998 13.0909V19.2873H25.1106C24.7325 21.28 23.5978 22.9673 21.8961 24.1018L27.0888 28.131C30.1142 25.3383 31.8597 21.2365 31.8597 16.3638C31.8597 15.2292 31.7579 14.1382 31.5687 13.0911L16.4998 13.0909Z" fill="#4285F4"/>
<path d="M7.53286 19.0453L6.36171 19.9419L2.21619 23.1709C4.84891 28.3927 10.2449 32 16.4994 32C20.8193 32 24.441 30.5745 27.0884 28.1309L21.8957 24.1018C20.4702 25.0618 18.652 25.6437 16.4994 25.6437C12.3394 25.6437 8.80495 22.8364 7.5394 19.0546L7.53286 19.0453Z" fill="#34A853"/>
<path d="M2.21624 8.8291C1.12539 10.9817 0.5 13.4109 0.5 15.9999C0.5 18.589 1.12539 21.0181 2.21624 23.1707C2.21624 23.1852 7.53997 19.0398 7.53997 19.0398C7.21997 18.0798 7.03082 17.0617 7.03082 15.9997C7.03082 14.9378 7.21997 13.9197 7.53997 12.9597L2.21624 8.8291Z" fill="#FBBC05"/>
<path d="M16.4997 6.3709C18.8561 6.3709 20.9506 7.18543 22.6233 8.75636L27.2051 4.1746C24.4269 1.58555 20.8198 0 16.4997 0C10.2452 0 4.84891 3.59272 2.21619 8.8291L7.53975 12.96C8.80513 9.17816 12.3397 6.3709 16.4997 6.3709Z" fill="#EA4335"/>
</g>
<defs>
<clipPath id="clip0_9_1553">
<rect width="32" height="32" fill="white" transform="translate(0.5)"/>
</clipPath>
</defs>
</svg>
