<svg width="24" height="28" viewBox="0 0 24 28" fill="none" xmlns="http://www.w3.org/2000/svg">
<path fill-rule="evenodd" clip-rule="evenodd" d="M24 11.5337V21.9558C24 24.9257 21.6122 27.3333 18.6667 27.3333H5.33333C2.38781 27.3333 0 24.9257 0 21.9558V11.5337C0 9.91912 0.719527 8.38996 1.95982 7.36866L8.62648 1.87909C10.5897 0.262474 13.4103 0.26247 15.3735 1.87909L22.0402 7.36866C23.2805 8.38995 24 9.91912 24 11.5337ZM16.3333 21V24C16.3333 24.7363 15.7364 25.3333 15 25.3333H9C8.26362 25.3333 7.66667 24.7363 7.66667 24V21C7.66667 18.6067 9.60677 16.6666 12 16.6666C14.3932 16.6666 16.3333 18.6067 16.3333 21Z" fill="#3D051B"/>
</svg>
