<svg width="32" height="32" viewBox="0 0 32 32" fill="none" xmlns="http://www.w3.org/2000/svg">
<path fill-rule="evenodd" clip-rule="evenodd" d="M23.703 24H8.29713C5.85929 24 4.46772 21.5478 5.93042 19.8295C6.57796 19.0687 6.97702 18.1665 7.08441 17.2203L7.68066 11.9669C8.00217 9.13414 10.1169 6.80955 12.9734 5.83151V5.69322C12.9734 4.02168 14.3285 2.66663 16 2.66663C17.6716 2.66663 19.0266 4.02168 19.0266 5.69322V5.83151C21.8832 6.80955 23.9979 9.13414 24.3194 11.9669L24.9157 17.2203C25.0231 18.1665 25.4221 19.0687 26.0697 19.8295C27.5324 21.5478 26.1408 24 23.703 24ZM19.9629 26.762C19.353 28.2655 17.8088 29.3333 16 29.3333C14.1913 29.3333 12.6471 28.2655 12.0372 26.762C12.0118 26.6993 12 26.632 12 26.5643C12 26.2526 12.2527 26 12.5644 26H19.4357C19.7474 26 20 26.2526 20 26.5643C20 26.632 19.9883 26.6993 19.9629 26.762Z" fill="#3D051B"/>
</svg>
